<svg width="74" height="161" viewBox="0 0 74 161" fill="none" xmlns="http://www.w3.org/2000/svg">
<mask id="path-1-inside-1" fill="white">
<path d="M26.0861 128.479C17.901 128.479 11.6599 126.177 7.36273 121.573C3.06557 116.866 0.916992 110.165 0.916992 101.468V93.0274H16.8779V102.696C16.8779 109.653 19.7938 113.132 25.6257 113.132C31.4575 113.132 34.3735 109.653 34.3735 102.696V78.6012C34.3735 71.5416 31.4575 68.0118 25.6257 68.0118C19.7938 68.0118 16.8779 71.5416 16.8779 78.6012V79.5221H0.916992L3.98639 19.5153H48.4927V34.8623H19.0265L17.6452 60.4918H17.9522C21.1239 55.2738 25.9838 52.6648 32.5318 52.6648C38.6706 52.6648 43.3259 54.7622 46.4976 58.9571C49.6693 63.1519 51.2552 69.2396 51.2552 77.22V101.468C51.2552 110.165 49.1066 116.866 44.8094 121.573C40.5123 126.177 34.2711 128.479 26.0861 128.479Z"/>
<path d="M63.7808 0H72.7808V3H67.0808V8.55H71.6108V11.55H67.0808V18H72.7808V21H63.7808V0Z"/>
<path d="M69.8778 87.08V84.65C69.8778 83.35 69.3278 82.7 68.2278 82.7C67.1278 82.7 66.5778 83.35 66.5778 84.65V96.38C66.5778 97.66 67.1278 98.3 68.2278 98.3C69.3278 98.3 69.8778 97.66 69.8778 96.38V93.17H72.9978V96.14C72.9978 97.64 72.6478 98.84 71.9478 99.74C71.2478 100.62 70.2378 101.13 68.9178 101.27V102.17C69.5978 102.17 70.1078 102.28 70.4478 102.5C70.8078 102.72 70.9878 103.08 70.9878 103.58C70.9878 104.32 70.7378 104.81 70.2378 105.05C69.7378 105.29 68.9678 105.41 67.9278 105.41C67.0078 105.41 66.2978 105.28 65.7978 105.02C65.2978 104.76 65.0478 104.31 65.0478 103.67V103.37H67.2678V103.61C67.2678 103.81 67.3278 103.96 67.4478 104.06C67.5878 104.16 67.7478 104.21 67.9278 104.21C68.2078 104.21 68.4078 104.15 68.5278 104.03C68.6478 103.93 68.7078 103.75 68.7078 103.49C68.7078 103.21 68.6178 103.01 68.4378 102.89C68.2578 102.77 67.9778 102.71 67.5978 102.71H67.4478V101.27C66.0878 101.13 65.0478 100.62 64.3278 99.74C63.6278 98.86 63.2778 97.66 63.2778 96.14V84.86C63.2778 83.22 63.6878 81.95 64.5078 81.05C65.3478 80.15 66.5578 79.7 68.1378 79.7C69.7178 79.7 70.9178 80.15 71.7378 81.05C72.5778 81.95 72.9978 83.22 72.9978 84.86V87.08H69.8778Z"/>
<path d="M65.7595 114H70.2295L73.6495 135H70.3495L69.7495 130.83V130.89H65.9995L65.3995 135H62.3395L65.7595 114ZM69.3595 128.04L67.8895 117.66H67.8295L66.3895 128.04H69.3595ZM63.8395 111.75C64.2195 110.89 64.6295 110.26 65.0695 109.86C65.5095 109.44 66.0095 109.23 66.5695 109.23C66.9295 109.23 67.2395 109.28 67.4995 109.38C67.7795 109.48 68.0695 109.62 68.3695 109.8C68.5495 109.9 68.7195 109.99 68.8795 110.07C69.0595 110.15 69.2295 110.19 69.3895 110.19C69.6295 110.19 69.8395 110.1 70.0195 109.92C70.1995 109.74 70.3895 109.44 70.5895 109.02L72.1795 109.98C71.7995 110.84 71.3895 111.48 70.9495 111.9C70.5095 112.3 70.0095 112.5 69.4495 112.5C69.0895 112.5 68.7695 112.45 68.4895 112.35C68.2295 112.25 67.9495 112.11 67.6495 111.93C67.4695 111.83 67.2895 111.74 67.1095 111.66C66.9495 111.58 66.7895 111.54 66.6295 111.54C66.3895 111.54 66.1795 111.63 65.9995 111.81C65.8195 111.99 65.6295 112.29 65.4295 112.71L63.8395 111.75Z"/>
<path d="M67.9942 160.3C66.3742 160.3 65.1342 159.84 64.2742 158.92C63.4142 158 62.9842 156.7 62.9842 155.02V143.98C62.9842 142.3 63.4142 141 64.2742 140.08C65.1342 139.16 66.3742 138.7 67.9942 138.7C69.6142 138.7 70.8542 139.16 71.7142 140.08C72.5742 141 73.0042 142.3 73.0042 143.98V155.02C73.0042 156.7 72.5742 158 71.7142 158.92C70.8542 159.84 69.6142 160.3 67.9942 160.3ZM67.9942 157.3C69.1342 157.3 69.7042 156.61 69.7042 155.23V143.77C69.7042 142.39 69.1342 141.7 67.9942 141.7C66.8542 141.7 66.2842 142.39 66.2842 143.77V155.23C66.2842 156.61 66.8542 157.3 67.9942 157.3Z"/>
<path d="M63.1363 28H68.1763C69.8163 28 71.0463 28.44 71.8663 29.32C72.6863 30.2 73.0963 31.49 73.0963 33.19V43.81C73.0963 45.51 72.6863 46.8 71.8663 47.68C71.0463 48.56 69.8163 49 68.1763 49H63.1363V28ZM68.1163 46C68.6563 46 69.0663 45.84 69.3463 45.52C69.6463 45.2 69.7963 44.68 69.7963 43.96V33.04C69.7963 32.32 69.6463 31.8 69.3463 31.48C69.0663 31.16 68.6563 31 68.1163 31H66.4363V46H68.1163Z"/>
<path d="M66.3443 53H69.6443V74H66.3443V53Z"/>
</mask>
<path d="M26.0861 128.479C17.901 128.479 11.6599 126.177 7.36273 121.573C3.06557 116.866 0.916992 110.165 0.916992 101.468V93.0274H16.8779V102.696C16.8779 109.653 19.7938 113.132 25.6257 113.132C31.4575 113.132 34.3735 109.653 34.3735 102.696V78.6012C34.3735 71.5416 31.4575 68.0118 25.6257 68.0118C19.7938 68.0118 16.8779 71.5416 16.8779 78.6012V79.5221H0.916992L3.98639 19.5153H48.4927V34.8623H19.0265L17.6452 60.4918H17.9522C21.1239 55.2738 25.9838 52.6648 32.5318 52.6648C38.6706 52.6648 43.3259 54.7622 46.4976 58.9571C49.6693 63.1519 51.2552 69.2396 51.2552 77.22V101.468C51.2552 110.165 49.1066 116.866 44.8094 121.573C40.5123 126.177 34.2711 128.479 26.0861 128.479Z" fill="white"/>
<path d="M63.7808 0H72.7808V3H67.0808V8.55H71.6108V11.55H67.0808V18H72.7808V21H63.7808V0Z" fill="white"/>
<path d="M69.8778 87.08V84.65C69.8778 83.35 69.3278 82.7 68.2278 82.7C67.1278 82.7 66.5778 83.35 66.5778 84.65V96.38C66.5778 97.66 67.1278 98.3 68.2278 98.3C69.3278 98.3 69.8778 97.66 69.8778 96.38V93.17H72.9978V96.14C72.9978 97.64 72.6478 98.84 71.9478 99.74C71.2478 100.62 70.2378 101.13 68.9178 101.27V102.17C69.5978 102.17 70.1078 102.28 70.4478 102.5C70.8078 102.72 70.9878 103.08 70.9878 103.58C70.9878 104.32 70.7378 104.81 70.2378 105.05C69.7378 105.29 68.9678 105.41 67.9278 105.41C67.0078 105.41 66.2978 105.28 65.7978 105.02C65.2978 104.76 65.0478 104.31 65.0478 103.67V103.37H67.2678V103.61C67.2678 103.81 67.3278 103.96 67.4478 104.06C67.5878 104.16 67.7478 104.21 67.9278 104.21C68.2078 104.21 68.4078 104.15 68.5278 104.03C68.6478 103.93 68.7078 103.75 68.7078 103.49C68.7078 103.21 68.6178 103.01 68.4378 102.89C68.2578 102.77 67.9778 102.71 67.5978 102.71H67.4478V101.27C66.0878 101.13 65.0478 100.62 64.3278 99.74C63.6278 98.86 63.2778 97.66 63.2778 96.14V84.86C63.2778 83.22 63.6878 81.95 64.5078 81.05C65.3478 80.15 66.5578 79.7 68.1378 79.7C69.7178 79.7 70.9178 80.15 71.7378 81.05C72.5778 81.95 72.9978 83.22 72.9978 84.86V87.08H69.8778Z" fill="white"/>
<path d="M65.7595 114H70.2295L73.6495 135H70.3495L69.7495 130.83V130.89H65.9995L65.3995 135H62.3395L65.7595 114ZM69.3595 128.04L67.8895 117.66H67.8295L66.3895 128.04H69.3595ZM63.8395 111.75C64.2195 110.89 64.6295 110.26 65.0695 109.86C65.5095 109.44 66.0095 109.23 66.5695 109.23C66.9295 109.23 67.2395 109.28 67.4995 109.38C67.7795 109.48 68.0695 109.62 68.3695 109.8C68.5495 109.9 68.7195 109.99 68.8795 110.07C69.0595 110.15 69.2295 110.19 69.3895 110.19C69.6295 110.19 69.8395 110.1 70.0195 109.92C70.1995 109.74 70.3895 109.44 70.5895 109.02L72.1795 109.98C71.7995 110.84 71.3895 111.48 70.9495 111.9C70.5095 112.3 70.0095 112.5 69.4495 112.5C69.0895 112.5 68.7695 112.45 68.4895 112.35C68.2295 112.25 67.9495 112.11 67.6495 111.93C67.4695 111.83 67.2895 111.74 67.1095 111.66C66.9495 111.58 66.7895 111.54 66.6295 111.54C66.3895 111.54 66.1795 111.63 65.9995 111.81C65.8195 111.99 65.6295 112.29 65.4295 112.71L63.8395 111.75Z" fill="white"/>
<path d="M67.9942 160.3C66.3742 160.3 65.1342 159.84 64.2742 158.92C63.4142 158 62.9842 156.7 62.9842 155.02V143.98C62.9842 142.3 63.4142 141 64.2742 140.08C65.1342 139.16 66.3742 138.7 67.9942 138.7C69.6142 138.7 70.8542 139.16 71.7142 140.08C72.5742 141 73.0042 142.3 73.0042 143.98V155.02C73.0042 156.7 72.5742 158 71.7142 158.92C70.8542 159.84 69.6142 160.3 67.9942 160.3ZM67.9942 157.3C69.1342 157.3 69.7042 156.61 69.7042 155.23V143.77C69.7042 142.39 69.1342 141.7 67.9942 141.7C66.8542 141.7 66.2842 142.39 66.2842 143.77V155.23C66.2842 156.61 66.8542 157.3 67.9942 157.3Z" fill="white"/>
<path d="M63.1363 28H68.1763C69.8163 28 71.0463 28.44 71.8663 29.32C72.6863 30.2 73.0963 31.49 73.0963 33.19V43.81C73.0963 45.51 72.6863 46.8 71.8663 47.68C71.0463 48.56 69.8163 49 68.1763 49H63.1363V28ZM68.1163 46C68.6563 46 69.0663 45.84 69.3463 45.52C69.6463 45.2 69.7963 44.68 69.7963 43.96V33.04C69.7963 32.32 69.6463 31.8 69.3463 31.48C69.0663 31.16 68.6563 31 68.1163 31H66.4363V46H68.1163Z" fill="white"/>
<path d="M66.3443 53H69.6443V74H66.3443V53Z" fill="white"/>
<path d="M26.0861 128.479C17.901 128.479 11.6599 126.177 7.36273 121.573C3.06557 116.866 0.916992 110.165 0.916992 101.468V93.0274H16.8779V102.696C16.8779 109.653 19.7938 113.132 25.6257 113.132C31.4575 113.132 34.3735 109.653 34.3735 102.696V78.6012C34.3735 71.5416 31.4575 68.0118 25.6257 68.0118C19.7938 68.0118 16.8779 71.5416 16.8779 78.6012V79.5221H0.916992L3.98639 19.5153H48.4927V34.8623H19.0265L17.6452 60.4918H17.9522C21.1239 55.2738 25.9838 52.6648 32.5318 52.6648C38.6706 52.6648 43.3259 54.7622 46.4976 58.9571C49.6693 63.1519 51.2552 69.2396 51.2552 77.22V101.468C51.2552 110.165 49.1066 116.866 44.8094 121.573C40.5123 126.177 34.2711 128.479 26.0861 128.479Z" stroke="white" stroke-width="3.0694" mask="url(#path-1-inside-1)"/>
<path d="M63.7808 0H72.7808V3H67.0808V8.55H71.6108V11.55H67.0808V18H72.7808V21H63.7808V0Z" stroke="white" stroke-width="3.0694" mask="url(#path-1-inside-1)"/>
<path d="M69.8778 87.08V84.65C69.8778 83.35 69.3278 82.7 68.2278 82.7C67.1278 82.7 66.5778 83.35 66.5778 84.65V96.38C66.5778 97.66 67.1278 98.3 68.2278 98.3C69.3278 98.3 69.8778 97.66 69.8778 96.38V93.17H72.9978V96.14C72.9978 97.64 72.6478 98.84 71.9478 99.74C71.2478 100.62 70.2378 101.13 68.9178 101.27V102.17C69.5978 102.17 70.1078 102.28 70.4478 102.5C70.8078 102.72 70.9878 103.08 70.9878 103.58C70.9878 104.32 70.7378 104.81 70.2378 105.05C69.7378 105.29 68.9678 105.41 67.9278 105.41C67.0078 105.41 66.2978 105.28 65.7978 105.02C65.2978 104.76 65.0478 104.31 65.0478 103.67V103.37H67.2678V103.61C67.2678 103.81 67.3278 103.96 67.4478 104.06C67.5878 104.16 67.7478 104.21 67.9278 104.21C68.2078 104.21 68.4078 104.15 68.5278 104.03C68.6478 103.93 68.7078 103.75 68.7078 103.49C68.7078 103.21 68.6178 103.01 68.4378 102.89C68.2578 102.77 67.9778 102.71 67.5978 102.71H67.4478V101.27C66.0878 101.13 65.0478 100.62 64.3278 99.74C63.6278 98.86 63.2778 97.66 63.2778 96.14V84.86C63.2778 83.22 63.6878 81.95 64.5078 81.05C65.3478 80.15 66.5578 79.7 68.1378 79.7C69.7178 79.7 70.9178 80.15 71.7378 81.05C72.5778 81.95 72.9978 83.22 72.9978 84.86V87.08H69.8778Z" stroke="white" stroke-width="3.0694" mask="url(#path-1-inside-1)"/>
<path d="M65.7595 114H70.2295L73.6495 135H70.3495L69.7495 130.83V130.89H65.9995L65.3995 135H62.3395L65.7595 114ZM69.3595 128.04L67.8895 117.66H67.8295L66.3895 128.04H69.3595ZM63.8395 111.75C64.2195 110.89 64.6295 110.26 65.0695 109.86C65.5095 109.44 66.0095 109.23 66.5695 109.23C66.9295 109.23 67.2395 109.28 67.4995 109.38C67.7795 109.48 68.0695 109.62 68.3695 109.8C68.5495 109.9 68.7195 109.99 68.8795 110.07C69.0595 110.15 69.2295 110.19 69.3895 110.19C69.6295 110.19 69.8395 110.1 70.0195 109.92C70.1995 109.74 70.3895 109.44 70.5895 109.02L72.1795 109.98C71.7995 110.84 71.3895 111.48 70.9495 111.9C70.5095 112.3 70.0095 112.5 69.4495 112.5C69.0895 112.5 68.7695 112.45 68.4895 112.35C68.2295 112.25 67.9495 112.11 67.6495 111.93C67.4695 111.83 67.2895 111.74 67.1095 111.66C66.9495 111.58 66.7895 111.54 66.6295 111.54C66.3895 111.54 66.1795 111.63 65.9995 111.81C65.8195 111.99 65.6295 112.29 65.4295 112.71L63.8395 111.75Z" stroke="white" stroke-width="3.0694" mask="url(#path-1-inside-1)"/>
<path d="M67.9942 160.3C66.3742 160.3 65.1342 159.84 64.2742 158.92C63.4142 158 62.9842 156.7 62.9842 155.02V143.98C62.9842 142.3 63.4142 141 64.2742 140.08C65.1342 139.16 66.3742 138.7 67.9942 138.7C69.6142 138.7 70.8542 139.16 71.7142 140.08C72.5742 141 73.0042 142.3 73.0042 143.98V155.02C73.0042 156.7 72.5742 158 71.7142 158.92C70.8542 159.84 69.6142 160.3 67.9942 160.3ZM67.9942 157.3C69.1342 157.3 69.7042 156.61 69.7042 155.23V143.77C69.7042 142.39 69.1342 141.7 67.9942 141.7C66.8542 141.7 66.2842 142.39 66.2842 143.77V155.23C66.2842 156.61 66.8542 157.3 67.9942 157.3Z" stroke="white" stroke-width="3.0694" mask="url(#path-1-inside-1)"/>
<path d="M63.1363 28H68.1763C69.8163 28 71.0463 28.44 71.8663 29.32C72.6863 30.2 73.0963 31.49 73.0963 33.19V43.81C73.0963 45.51 72.6863 46.8 71.8663 47.68C71.0463 48.56 69.8163 49 68.1763 49H63.1363V28ZM68.1163 46C68.6563 46 69.0663 45.84 69.3463 45.52C69.6463 45.2 69.7963 44.68 69.7963 43.96V33.04C69.7963 32.32 69.6463 31.8 69.3463 31.48C69.0663 31.16 68.6563 31 68.1163 31H66.4363V46H68.1163Z" stroke="white" stroke-width="3.0694" mask="url(#path-1-inside-1)"/>
<path d="M66.3443 53H69.6443V74H66.3443V53Z" stroke="white" stroke-width="3.0694" mask="url(#path-1-inside-1)"/>
</svg>
