<svg width="1366" height="1261" viewBox="0 0 1366 1261" fill="none" xmlns="http://www.w3.org/2000/svg">
<path d="M1450.42 20.6825C1467.07 -16.6718 1526.65 0.49234 1520.81 40.9608L1458.4 473.668C1455.39 494.553 1460 516.003 1471.48 534.446L1624.83 780.89C1645.03 813.34 1654.75 850.524 1652.74 887.661C1646.22 1008.67 1521.96 1088.34 1400.1 1049.64L1352.5 1034.53C1290.21 1014.75 1222.66 1032.68 1181.8 1079.84L1157.53 1107.85C1122.42 1148.37 1060.91 1157.79 1012.27 1130.09L999.129 1122.61C965.665 1103.55 923.913 1105.95 894.359 1128.62C867.45 1149.26 830.149 1153.25 798.064 1138.92L695.21 1092.99C638.305 1067.58 573.832 1064.3 515.79 1083.87L288.417 1160.54C246.785 1174.58 199.66 1158.85 175.085 1122.73L169.015 1113.81C159.664 1100.06 145.297 1090.05 128.808 1085.79L103.713 1079.31C87.2179 1075.05 75.8313 1060.37 76.5099 1044.23C77.4589 1021.67 55.3766 1003.92 32.347 1008.73L-0.939331 1015.7C-29.5463 1021.68 -59.1702 1007.28 -71.4718 981.414L-168.974 776.388L-326.048 489.18C-362.93 421.741 -469.014 453.054 -455.891 527.506L-430.245 673.006C-418.216 741.255 -521.021 762.298 -543.19 696.125C-550.209 675.171 -543.826 652.599 -526.871 638.421L-146.666 320.471C-102.554 283.582 -34.3294 288.773 5.52069 332.049C53.6718 384.34 139.735 379.143 177.239 321.68L203.233 281.853C243.442 220.246 330.283 204.296 394.58 246.708L399.613 250.028C468.616 295.544 562.227 270.67 593.505 198.508C596.427 191.768 599.975 185.305 604.11 179.195L615.728 162.028C647.005 115.808 695.522 82.8117 751.872 69.4362L764.718 66.3869C807.648 56.1968 853.084 57.8881 895.772 71.265L994.068 102.068C1056.6 121.664 1124.33 105.254 1167.72 59.9922L1183.35 43.6841C1218.05 7.48391 1272.51 -5.1471 1322.21 11.4761L1405.22 39.2363C1423.4 45.3174 1443.03 37.2583 1450.42 20.6825Z" fill="#84D06A"/>
<path d="M-1.00012 843.785H1366.16V1261L-16 1149L-1.00012 843.785Z" fill="#84D06A"/>
</svg>
