<svg width="1309" height="518" viewBox="0 0 1309 518" fill="none" xmlns="http://www.w3.org/2000/svg">
<path d="M83.0929 295.886L63.2643 315.714L45.4892 297.939L44.4285 296.879L43.3678 297.939L24.05 317.257L2.12133 295.328L42.3284 255.121L83.0929 295.886ZM43.9465 339.275L63.2643 319.957L77.143 333.836L44.8813 366.097L12.1668 333.383L24.05 321.5L41.8252 339.275L42.8858 340.335L43.9465 339.275ZM44.4285 301.121L61.1429 317.836L42.8858 336.093L26.1714 319.378L44.4285 301.121ZM1011.94 408.777L1010.88 409.838L1011.94 410.898L1047.14 446.101L1016.76 476.479L723.121 182.838L1012.92 -106.96L1306.56 186.682L1155.1 338.142L1119.9 302.939L1118.84 301.879L1117.78 302.939L1011.94 408.777ZM1155.1 342.384L1223.95 411.231L1120.23 514.948L1051.38 446.101L1155.1 342.384ZM1152.98 340.263L1049.26 443.979L1015.12 409.838L1118.84 306.121L1152.98 340.263ZM106.916 293.695L4.44976 191.228L105.557 90.1213L208.023 192.588L106.916 293.695ZM108.121 314.164L134.164 288.121L160.578 314.535L134.535 340.578L108.121 314.164ZM85.068 343.217L98.1642 330.121L111.461 343.418L98.3646 356.514L85.068 343.217Z" stroke="#296016" stroke-width="3"/>
</svg>
