<?xml version="1.0" encoding="UTF-8" standalone="no"?>
<svg
   xmlns:dc="http://purl.org/dc/elements/1.1/"
   xmlns:cc="http://creativecommons.org/ns#"
   xmlns:rdf="http://www.w3.org/1999/02/22-rdf-syntax-ns#"
   xmlns:svg="http://www.w3.org/2000/svg"
   xmlns="http://www.w3.org/2000/svg"
   xmlns:sodipodi="http://sodipodi.sourceforge.net/DTD/sodipodi-0.dtd"
   xmlns:inkscape="http://www.inkscape.org/namespaces/inkscape"
   version="1.1"
   id="Capa_1"
   x="0px"
   y="0px"
   viewBox="0 0 512 512"
   style="enable-background:new 0 0 512 512;"
   xml:space="preserve"
   sodipodi:docname="warning.svg"
   inkscape:version="1.0.1 (3bc2e813f5, 2020-09-07)"><metadata
   id="metadata43"><rdf:RDF><cc:Work
       rdf:about=""><dc:format>image/svg+xml</dc:format><dc:type
         rdf:resource="http://purl.org/dc/dcmitype/StillImage" /></cc:Work></rdf:RDF></metadata><defs
   id="defs41" /><sodipodi:namedview
   pagecolor="#ffffff"
   bordercolor="#666666"
   borderopacity="1"
   objecttolerance="10"
   gridtolerance="10"
   guidetolerance="10"
   inkscape:pageopacity="0"
   inkscape:pageshadow="2"
   inkscape:window-width="2560"
   inkscape:window-height="1018"
   id="namedview39"
   showgrid="false"
   inkscape:zoom="1.5485627"
   inkscape:cx="256.96864"
   inkscape:cy="256"
   inkscape:window-x="0"
   inkscape:window-y="0"
   inkscape:window-maximized="1"
   inkscape:current-layer="Capa_1" />
<g
   id="g6"
   style="fill:#f8f9fa;fill-opacity:1">
	<g
   id="g4"
   style="fill:#f8f9fa;fill-opacity:1">
		<path
   d="M501.609,384.603L320.543,51.265c-13.666-23.006-37.802-36.746-64.562-36.746c-26.76,0-50.896,13.74-64.562,36.746    c-0.103,0.176-0.19,0.352-0.293,0.528L10.662,384.076c-13.959,23.491-14.223,51.702-0.719,75.457    c13.535,23.769,37.919,37.948,65.266,37.948h360.544c27.347,0,52.733-14.179,66.267-37.948    C515.524,435.779,515.261,407.566,501.609,384.603z M225.951,167.148c0-16.586,13.445-30.03,30.03-30.03    c16.586,0,30.03,13.445,30.03,30.03v120.121c0,16.584-13.445,30.03-30.03,30.03s-30.03-13.447-30.03-30.03V167.148z     M255.981,437.421c-24.839,0-45.046-20.206-45.046-45.046c0-24.839,20.206-45.045,45.046-45.045    c24.839,0,45.045,20.206,45.045,45.045C301.027,417.214,280.821,437.421,255.981,437.421z"
   id="path2"
   style="fill:#f8f9fa;fill-opacity:1" />
	</g>
</g>
<g
   id="g8">
</g>
<g
   id="g10">
</g>
<g
   id="g12">
</g>
<g
   id="g14">
</g>
<g
   id="g16">
</g>
<g
   id="g18">
</g>
<g
   id="g20">
</g>
<g
   id="g22">
</g>
<g
   id="g24">
</g>
<g
   id="g26">
</g>
<g
   id="g28">
</g>
<g
   id="g30">
</g>
<g
   id="g32">
</g>
<g
   id="g34">
</g>
<g
   id="g36">
</g>
</svg>
